<svg width="538" height="538" viewBox="0 0 538 538" fill="none" xmlns="http://www.w3.org/2000/svg">
<rect width="538" height="538" fill="white"/>
<path d="M505.342 227.137C502.008 230.528 444.18 290.719 438.809 297.84H509.37V329.377H388.528V297.84C392.417 291.737 449.088 232.563 454.088 227.137H351.581V195.6H505.342V227.137Z" fill="black"/>
<path d="M94.8887 268.777C131.83 268.777 161.777 238.83 161.777 201.889C161.777 164.947 131.83 135 94.8887 135C57.9471 135 28 164.947 28 201.889C28 238.83 57.9471 268.777 94.8887 268.777Z" fill="#FFE033"/>
<path d="M329.285 268.777C366.227 268.777 396.174 238.83 396.174 201.889C396.174 164.947 366.227 135 329.285 135C292.343 135 262.396 164.947 262.396 201.889C262.396 238.83 292.343 268.777 329.285 268.777Z" fill="#FFE033"/>
<path fill-rule="evenodd" clip-rule="evenodd" d="M81.8449 235.837C77.9634 244.722 76.0226 255.088 76.0226 266.934C76.0226 276.75 77.5121 285.889 80.4909 294.351C83.4698 302.813 88.0734 310.133 94.3019 316.31C100.53 322.487 108.384 327.353 117.862 330.907C127.34 334.461 138.488 336.238 151.306 336.238C156.361 336.238 161.416 335.984 166.471 335.476C171.526 334.968 176.265 334.334 180.689 333.572C185.112 332.811 193.823 329.217 195.989 328.201V297.144C191.476 299.005 185.653 300.571 178.522 301.84C171.391 303.109 164.124 303.744 156.722 303.744C145.168 303.744 135.961 301.459 129.1 296.89C122.24 292.32 118.358 286.143 117.456 278.358H208.988C209.168 276.327 209.349 274 209.529 271.377C209.71 268.754 209.8 266.342 209.8 264.142C209.8 241.633 203.933 224.582 192.198 212.989C180.463 201.396 164.486 195.6 144.265 195.6C135.6 195.6 127.16 197.123 118.945 200.169C110.731 203.216 103.464 207.701 97.1454 213.624C90.8266 219.547 85.7265 226.952 81.8449 235.837ZM169.044 243.072C170.037 246.118 170.624 249.249 170.804 252.464H117.456C117.997 249.249 118.855 246.076 120.028 242.945C121.202 239.814 122.872 237.064 125.038 234.694C127.205 232.325 129.913 230.421 133.162 228.982C136.412 227.544 140.294 226.825 144.807 226.825C149.501 226.825 153.428 227.586 156.587 229.109C159.746 230.633 162.364 232.579 164.44 234.948C166.516 237.317 168.051 240.025 169.044 243.072Z" fill="black"/>
<path d="M208.085 438C245.027 438 274.974 408.053 274.974 371.111C274.974 334.17 245.027 304.223 208.085 304.223C171.143 304.223 141.196 334.17 141.196 371.111C141.196 408.053 171.143 438 208.085 438Z" fill="#FFE033"/>
<path fill-rule="evenodd" clip-rule="evenodd" d="M345.865 354.434C358.061 344.46 364.158 329.179 364.158 308.591V195.6H305.229C293.499 195.6 282.98 197.076 273.67 200.029C264.361 202.981 256.494 207.17 250.071 212.597C243.647 218.023 238.76 224.526 235.408 232.107C232.057 239.687 230.381 248.106 230.381 257.362C230.381 275.875 235.781 290.278 246.58 300.572C257.379 310.866 272.925 316.013 293.22 316.013C298.806 316.013 303.973 315.574 308.72 314.696C313.468 313.818 318.077 312.502 322.545 310.746V315.294C322.545 322.316 320.078 328.062 315.144 332.53C310.21 336.999 301.785 339.233 289.869 339.233C280.745 339.233 272.6 338.595 265.431 337.318C264.701 337.188 263.991 337.063 263.298 336.941C257.195 335.866 252.432 335.027 246.58 333.02V363.334C252.827 365.162 254.29 365.494 258.888 366.538C259.909 366.769 261.083 367.036 262.499 367.361C270.293 369.155 280.373 369.396 289.31 369.396C314.818 369.396 333.67 364.409 345.865 354.434ZM301.04 287.286C282.235 287.286 272.832 277.311 272.832 257.362C272.832 247.787 275.532 239.887 280.932 233.663C286.331 227.439 294.523 224.327 305.509 224.327C309.233 224.327 312.491 224.446 315.284 224.686C318.077 224.925 320.497 225.204 322.545 225.524V282.498C319.938 283.775 316.773 284.892 313.049 285.85C309.326 286.807 305.323 287.286 301.04 287.286Z" fill="black"/>
</svg>
